<?xml version="1.0" encoding="UTF-8"?>
<svg width="17px" height="14px" viewBox="0 0 17 14" version="1.1" xmlns="http://www.w3.org/2000/svg" xmlns:xlink="http://www.w3.org/1999/xlink">
    <!-- Generator: sketchtool 53 (72520) - https://sketchapp.com -->
    <title>4153416E-BF84-4E42-8057-F6F0868C9F7C</title>
    <desc>Created with sketchtool.</desc>
    <g id="Desktop" stroke="none" stroke-width="1" fill="none" fill-rule="evenodd">
        <g id="02_ArticleDetailPage_00" transform="translate(-1182.000000, -1684.000000)" fill="#059FF5">
            <g id="News-Details-Sharing-Icons" transform="translate(1128.000000, 1673.000000)">
                <path d="M69.2702075,14.9441821 C69.2702075,19.6143575 65.7619478,24.9997594 59.3462644,25 C57.3765412,25 55.543582,24.414995 54,23.4124387 C54.2729346,23.4450994 54.5506772,23.4612794 54.8319815,23.4612794 C56.4662053,23.4612794 57.9701352,22.8964843 59.164031,21.9484226 C57.637129,21.9197317 56.3498015,20.8979279 55.9055557,19.4935791 C56.1181811,19.5349614 56.3368018,19.5575171 56.5610616,19.5575171 C56.8794061,19.5575171 57.1877782,19.5140297 57.480895,19.4330095 C55.8848986,19.1092298 54.6826332,17.6799795 54.6826332,15.9685724 C54.6826332,15.9525729 54.6826332,15.9382575 54.6831081,15.9234609 C55.1531158,16.1882349 55.6905559,16.3475685 56.26284,16.3654326 C55.3263266,15.7321885 54.7107102,14.6497549 54.7107102,13.4235662 C54.7107102,12.7760067 54.8834461,12.1693483 55.183033,11.6470181 C56.9030312,13.7856004 59.4735903,15.1920544 62.3724663,15.3398394 C62.312632,15.0808998 62.2817651,14.8111936 62.2817651,14.5339088 C62.2817651,12.5828697 63.8439267,11 65.7700801,11 C66.7733728,11 67.6795535,11.4297014 68.3160644,12.1167183 C69.1106494,11.9578659 69.8568565,11.6637394 70.5308826,11.2588794 C70.2700574,12.083817 69.7172432,12.7760067 68.9970355,13.2137079 C69.7026408,13.1281766 70.3750642,12.9385883 71,12.657093 C70.5331976,13.3659439 69.9412656,13.9886018 69.2602351,14.4874139 C69.2669427,14.6389883 69.2702075,14.7912243 69.2702075,14.9441821 Z" id="Fill-1"></path>
            </g>
        </g>
    </g>
</svg>